<?xml version="1.0" encoding="utf-8"?>
<!-- Generator: Adobe Illustrator 22.0.1, SVG Export Plug-In . SVG Version: 6.00 Build 0)  -->
<svg version="1.1" id="Layer_1" xmlns="http://www.w3.org/2000/svg" xmlns:xlink="http://www.w3.org/1999/xlink" x="0px" y="0px"
	 viewBox="0 0 317.8 317.8" style="enable-background:new 0 0 317.8 317.8;" xml:space="preserve">
<style type="text/css">
	.st0{fill:#010101;}
</style>
<path class="st0" d="M158.9,0C71.1,0,0,71.1,0,158.9s71.1,158.9,158.9,158.9s158.9-71.1,158.9-158.9S246.6,0,158.9,0z M179.3,245.6
	c-4.1,6.3-9.8,10-17.3,11.1c-0.2,0-0.4,0.1-0.6,0.2c-1.7,0-3.4,0-5.1,0c-2-0.5-4.1-0.8-6-1.6c-8.8-3.5-13.9-10-15.4-19.3
	c-0.2-1.1-0.2-2.2-0.3-3.4c16.2,0,32.2,0,48.4,0C183,237.4,181.8,241.7,179.3,245.6z M235.2,223.4c-2.4,2.8-5.4,3.8-9.1,3.8
	c-44.8,0-89.7,0-134.5,0c-0.5,0-0.9,0-1.4,0c-2.5-0.1-4.7-1-6.6-2.6c-4.3-3.9-5-9.8-1.6-14.8c6.9-10.2,13.8-20.3,20.7-30.5
	c0.4-0.6,0.7-1.5,0.7-2.3c0-12.9,0-25.8,0.1-38.7c0-2.7,0.1-5.4,0.6-8.1c3.7-21.2,15.7-35.7,35.7-43.7c2.6-1,5.4-1.7,8.2-2.5
	c0-4-0.1-8.1,0-12.2c0.1-4,1.9-7.2,5.4-9.2c1.1-0.7,2.5-1,3.7-1.5c1.2,0,2.4,0,3.6,0c0.2,0.1,0.5,0.2,0.7,0.3c5,1.4,7.9,4.8,8.3,9.9
	c0.3,3.8,0.1,7.6,0.1,11.4c0,0.5,0,1,0,1.4c0.5,0.1,0.8,0.2,1.2,0.3c16.9,4,29.4,13.8,37.4,29.2c4.2,8.1,5.9,16.7,5.9,25.8
	c0,12.5,0,25,0,37.5c0,0.8,0.3,1.7,0.7,2.3c2.3,3.5,4.7,7,7.1,10.5c4.5,6.7,9.1,13.3,13.6,20C238.8,214.2,238.6,219.4,235.2,223.4z"
	/>
</svg>
