<?xml version="1.0" encoding="utf-8"?>
<!-- Generator: Adobe Illustrator 22.0.1, SVG Export Plug-In . SVG Version: 6.00 Build 0)  -->
<svg version="1.1" id="Layer_1" xmlns="http://www.w3.org/2000/svg" xmlns:xlink="http://www.w3.org/1999/xlink" x="0px" y="0px"
	 viewBox="0 0 81.2 76.9" style="enable-background:new 0 0 81.2 76.9;" xml:space="preserve">
<style type="text/css">
	.st0{fill:#010101;}
</style>
<path class="st0" d="M71.1,15.4H58.3V6.3c0-3.5-2.8-6.3-6.3-6.3H29.3c-3.5,0-6.3,2.8-6.3,6.3v9.1H10.1C4.5,15.4,0,19.9,0,25.5v41.3
	c0,5.6,4.5,10.1,10.1,10.1h61c5.6,0,10.1-4.5,10.1-10.1V25.5C81.2,19.9,76.7,15.4,71.1,15.4z M28.9,9.5c0-2.6,2.1-4.8,4.8-4.8h14
	c2.6,0,4.8,2.1,4.8,4.8v5.9H28.9V9.5z"/>
</svg>
