<?xml version="1.0" encoding="utf-8"?>
<!-- Generator: Adobe Illustrator 22.0.1, SVG Export Plug-In . SVG Version: 6.00 Build 0)  -->
<svg version="1.1" id="Layer_1" xmlns="http://www.w3.org/2000/svg" xmlns:xlink="http://www.w3.org/1999/xlink" x="0px" y="0px"
	 viewBox="0 0 247.6 247.9" style="enable-background:new 0 0 247.6 247.9;" xml:space="preserve">
<g>
	<path d="M184.2,88.6c0,10.6-0.1,21,0.1,32.3c1.7-1.1,2.5-1.5,3.2-2.1c5.3-5.3,10.9-10.3,15.8-16c5-5.7,15.4-6.2,21-0.3
		c6.1,6.4,12.5,12.5,18.5,18.9c6.7,7.1,6.6,14.1-0.4,21.1c-17.4,17.4-35.1,34.7-52.6,52c-12.3,12.2-24.5,24.5-36.7,36.8
		c-2.2,2.2-4.6,3.6-7.6,4.4c-12.7,3.5-25.3,7.3-37.9,10.8c-2.8,0.8-5.8,1-8.4,1.5c-2.3-3.1-0.9-5.5-0.2-7.8c3.4-12,6.9-24,10.3-36
		c0.8-2.9,1.5-5.8,2.2-8.6c-2.3-2-4.7-1.4-6.9-1.4c-28.8,0-57.6,0-86.5,0c-2.3,0-4.5-0.3-7.4-0.5c-0.2-2.9-0.5-5.3-0.5-7.7
		c0-30,0-60,0-90c0-2.5,0-5,0-6.8c-0.9-1-1.1-1.5-1.5-1.8c-8.1-5.6-9.3-13.7-8.3-22.6c0.2-1.7,1.1-3.5,2-5.1
		c7.1-13.2,14.4-26.3,21.5-39.5c0.9-1.7,1.2-3.7,1.6-5.7c0.3-1.5,0-3,0.2-4.5C26,4.3,29.3,0.9,35,0.3c1.6-0.2,3.3-0.2,5-0.2
		C78,0.1,116,0.3,154,0c10.7-0.1,14.8,4.4,15,14.7c0.1,2.4,0.9,4.9,2,7c6.7,12.6,13.7,25.1,20.5,37.7c4.9,9.1,3.2,19.2-4.4,26.3
		C186.2,86.6,185.4,87.4,184.2,88.6z M32.8,187.6c0-2.9,0-5,0-7.1c0-22,0-44,0-66c0-2.5-0.4-5.1,1.9-6.9c6.1-1.3,45.5-0.9,49.2,0.5
		c1.8,2.1,1.4,4.7,1.4,7.1c0,21.8,0,43.7,0,65.5c0,2.2,0.4,4.5,0.5,6.5c1.1,0.4,1.6,0.7,2.1,0.7c9.5,0.1,19,0.2,28.5,0.1
		c1.5,0,3.3-0.9,4.4-1.9c4.8-4.6,9.5-9.4,14.1-14.1c0.4-0.4,0.6-1.1,1.2-2.3c-2.1-0.2-3.7-0.4-5.2-0.4c-5.2,0-10.3,0-15.5-0.1
		c-1.8,0-3.5-0.5-5.7-0.8c0.1-1.8,0.2-3.2,0.3-5c11.7-1.3,23,0.2,34.4-0.9c2.2-2.4,4.4-4.7,7.4-8c-2.9-0.2-4.5-0.4-6.1-0.4
		c-4.5,0-9,0-13.5,0c-8.3,0-16.7,0-25,0c-2.4,0-4.8-0.1-5.4-3.1c0.5-4.2,4.7-2.2,7.1-4.5c0.1-1.5,0.4-3.5,0.4-5.4c0-9,0-18,0.1-27
		c0-2.1,0.5-4.2,0.7-6c4.6-1.4,44.3-1.6,49.3-0.4c2.1,1.5,1.8,3.8,1.8,5.9c0,8.2,0,16.3,0,24.5c0,1.8,0,3.6,0,6.5
		c2.1-1.6,3.3-2.4,4.3-3.4c2.9-2.8,5.6-5.7,8.5-8.5c2.5-2.3,3.6-5,3.5-8.4c-0.1-9.5,0-19-0.1-28.5c0-1.6-0.3-3.2-0.4-4.6
		c-3.7-0.8-7.2-1-10.2-2.3c-3.2-1.3-5.9-3.5-9.3-5.6c-3.7,4.5-8.6,7.1-14.6,7.1c-6.1,0.1-11.2-2.6-15.1-7
		c-12.5,9.3-17.3,9.3-30.9,0.1c-10,9.7-20.2,8.8-30.2,0.1c-10.1,8.4-19.3,9.7-31.4-0.7c-4.4,6.1-11.3,7.3-18.5,7.8
		c-0.2,1.9-0.4,3.4-0.4,4.9c0,28.8,0,57.7,0,86.5c0,1.7,0.4,3.5,0.7,5.4C22.3,187.6,27,187.6,32.8,187.6z M135.4,205
		c3.4-2,64.7-63.3,66.3-66.3c-4.2-4-8.5-8.1-12.7-12.2c-3.8,2.2-63.9,63.2-66,67.3c2.2,0.4,4.2,0.7,6.6,1.1
		C131.5,198.1,133.4,201.4,135.4,205z M152.1,223.9c23.1-22.9,45.2-44.8,67.7-67.1c-4.2-4.9-8.3-9.1-12.7-12.8
		c-5.3,3.2-64.2,62.2-66.3,66.5c3.4,2.1,6.9,4.2,9.9,6C151.2,219.1,151.5,220.8,152.1,223.9z M78.2,147.4c0-11.5,0-22.4,0-33.2
		c-4.4-1.6-33.8-1.6-38.2-0.1c-1.2,4-1.3,28,0.1,33.4C52.6,147.9,65.2,148.1,78.2,147.4z M154.6,146.6c-0.1-11,0.4-21.9-0.2-32.5
		c-6-1.5-34.5-1.3-38.2,0.1c-1.4,5.7-1,29.4,0.5,32.9C122.1,148.3,149.9,148,154.6,146.6z M78,187.1c1.1-6.2,0.8-28.8-0.4-32.3
		c-5-1.2-33.7-1-37.6,0.2c-1.3,4.3-1.3,27.9,0.1,32C44.1,188.3,72.9,188.5,78,187.1z M223.8,152.2c1.2-0.9,1.8-1.2,2.3-1.6
		c4-4,8.1-7.9,12-12c4.9-5.1,4.9-8.6-0.1-13.7c-5.8-6-11.7-11.9-17.6-17.8c-4.8-4.8-8.9-4.6-13.7,0.3c-3.1,3.2-6.2,6.5-9.3,9.7
		c-1.2,1.3-2.3,2.7-3.9,4.6C203.7,132,213.6,142,223.8,152.2z M32.5,14.4c4.5,1.2,124.4,1.2,128.5-0.1c1.3-5.9,0.2-7.5-5.4-7.6
		c-1.3,0-2.7,0-4,0c-29.8,0-59.6,0-89.4,0c-8.2,0-16.3-0.1-24.5,0C32.3,6.8,30.9,8.9,32.5,14.4z M147.3,22.1
		c4.4,13.5,8.5,26.1,12.7,38.8c8.3,0.4,16,0.4,24.9,0.1c-7.3-13.7-14.3-26.3-21.2-38.9C158.3,22.1,153.4,22.1,147.3,22.1z M9.4,60.8
		c8.9,0,16.4,0,24.2,0C38,48,42.7,35.6,46.2,22.2c-5.6,0-10.7,0-16,0C23.2,34.7,16.4,47.2,9.4,60.8z M63.7,61
		c2.4-13,4.7-25.6,6.2-38.9c-5.8-0.5-11-0.6-16.6,0.2C49.3,35,44.7,47.4,41,61C48.9,61.4,56.1,61.3,63.7,61z M100.7,22.1
		c-0.3,13.3-0.7,26,0.2,38.5c6.6,1.1,18.4,0.8,21.9-0.3c0.3-4.4-4.9-34.8-6.6-38.2C111.4,22.1,106.5,22.1,100.7,22.1z M152.1,61
		c0-4.8-9.9-34.6-12.6-38.7c-4.9,0-9.8,0-15.7,0c2.3,13.2,4.2,25.9,6.5,38.7C138,61.3,145,61.4,152.1,61z M93.4,22
		c-5.9-0.1-11.1-0.9-16,0.4c-2.9,9.4-6.4,34.7-5.3,38.6c6.9,0.1,13.9,0.4,21.3-0.1C93.4,47.8,93.4,35.2,93.4,22z M145.3,219.9
		c-2-1.1-3.9-2.6-6-3.3c-5.1-1.8-8.2-5.3-10.1-10.2c-0.8-2.1-2.1-4.1-3.3-6.1c-3.2,0-6.1,0-9.5,0c-1.6,5.7-3.1,11.3-4.7,17.2
		c5.7,5.7,11.3,11.3,16.9,16.9c5.9-1.7,11.2-3.2,16.8-4.8C145.3,226.1,145.3,223.2,145.3,219.9z M161.7,68.6
		c-2.3,5.4,2.1,11.5,5.9,13.7c4.9,2.8,10.9,2.3,15.3-1.4c4.1-3.4,5.2-7.4,3.6-12.2C182.4,67.5,166.5,67.5,161.7,68.6z M7.7,68.1
		C6,73.9,7.5,78.3,12,81.6c4.3,3.1,10.1,3.3,14.5,0.5c4.9-3.1,6.6-7.3,5.4-13.7C23.9,67.3,15.7,67.8,7.7,68.1z M62.7,68.2
		c-7.7-0.6-15.2-0.7-22.6,0.1c-1.6,5.9-0.2,10.3,4.3,13.5c3.8,2.8,8.9,3,13.1,0.5C62.1,79.5,63.9,75,62.7,68.2z M131.6,68.2
		c-1.8,5.7-0.1,10.6,4.5,13.8c4.2,2.8,9.4,2.7,13.5-0.3c4.2-3.1,5.7-8.1,3.8-13.4C146.2,68.2,138.9,68.2,131.6,68.2z M101.7,68.2
		c-2,5.7-0.7,10.3,3.6,13.5c4.3,3.2,9.8,3.2,13.9,0c4.3-3.3,5.8-8.1,3.9-13.5C116,68.2,108.8,68.2,101.7,68.2z M70.6,68.3
		c-1,6.9,0.8,11.5,5.2,14.1c4.4,2.6,9.6,2.2,13.5-0.9c3.9-3.2,5.1-7.7,3.3-13.2C85.5,67.6,78.1,67.5,70.6,68.3z M105.3,239.8
		c6,0.2,12.9-1.9,15.4-4.5c-3-3.9-6.5-7.2-11.1-11C108.1,230,106.8,234.6,105.3,239.8z"/>
</g>
</svg>
