<?xml version="1.0" encoding="utf-8"?>
<!-- Generator: Adobe Illustrator 22.0.1, SVG Export Plug-In . SVG Version: 6.00 Build 0)  -->
<svg version="1.1" id="Layer_1" xmlns="http://www.w3.org/2000/svg" xmlns:xlink="http://www.w3.org/1999/xlink" x="0px" y="0px"
	 viewBox="0 0 89 89" style="enable-background:new 0 0 89 89;" xml:space="preserve">
<style type="text/css">
	.st0{fill:#010101;}
</style>
<path class="st0" d="M44.5,0C19.9,0,0,19.9,0,44.5C0,69.1,19.9,89,44.5,89S89,69.1,89,44.5C89,19.9,69.1,0,44.5,0z M60.3,67.6
	c-3.2,3.2-7.7,5-13.3,5.3v5.8h-4.6V73c-11.6-1.1-17.8-6.6-18.6-16.5h8.3c0.6,6.3,4.1,9.8,10.3,10.8H47c6.6-0.7,9.8-4.3,9.8-10.6
	c0-2.6-0.7-4.6-2-6c-1.3-1.4-3.9-2.6-7.8-3.5l-4.6-0.9c-11.5-2-17.2-7-17.2-14.8c0-4.4,1.6-8,4.7-10.7s7.3-4.3,12.6-4.7v-5.8H47v5.8
	c10.1,0.7,15.7,5.2,16.6,13.6h-8.3c-0.5-4.7-3.2-7.3-8.3-7.9l-4.6-0.1c-6,0.9-9,4-9,9.2c0,2.8,0.8,4.8,2.5,6.1
	c1.7,1.3,3.8,2.2,6.5,2.8l4.6,0.8c7,1.3,11.8,3.1,14.3,5.6c2.5,2.4,3.8,5.8,3.8,10C65.1,60.6,63.5,64.4,60.3,67.6z"/>
</svg>
