<svg xmlns="http://www.w3.org/2000/svg" xmlns:xlink="http://www.w3.org/1999/xlink" version="1.1" x="0px" y="0px" viewBox="0 0 100 125" enable-background="new 0 0 100 100" xml:space="preserve"><path d="M69.713,51.904c-4.751,0-9.218,1.85-12.578,5.21c-6.935,6.936-6.935,18.22,0,25.155c3.36,3.359,7.827,5.21,12.578,5.21  c4.752,0,9.219-1.851,12.578-5.21c6.936-6.936,6.936-18.22,0-25.156C78.932,53.754,74.465,51.904,69.713,51.904z M75.246,75.225  c-1.478,1.479-3.443,2.293-5.533,2.293s-4.055-0.814-5.533-2.293c-3.051-3.051-3.051-8.016,0-11.066  c1.479-1.478,3.443-2.292,5.533-2.292s4.056,0.814,5.533,2.292C78.297,67.209,78.298,72.174,75.246,75.225z"/><path d="M31.035,48.801c4.751,0,9.218-1.85,12.578-5.21c6.935-6.935,6.935-18.219,0-25.155c-3.359-3.359-7.826-5.209-12.578-5.209  c-4.751,0-9.218,1.85-12.578,5.209c-6.935,6.937-6.935,18.221,0,25.155C21.817,46.951,26.284,48.801,31.035,48.801z M25.501,25.48  c1.478-1.479,3.443-2.292,5.533-2.292s4.056,0.813,5.534,2.292c3.051,3.051,3.051,8.016,0,11.066  c-1.478,1.478-3.443,2.292-5.534,2.292s-4.055-0.814-5.533-2.292C22.451,33.496,22.451,28.531,25.501,25.48z"/><path d="M38.004,78.515h-8.748l57.782-57.782c1.945-1.945,1.945-5.1,0-7.045s-5.1-1.944-7.045,0L22.212,71.471v-8.748  c0-2.751-2.23-4.981-4.981-4.981s-4.981,2.23-4.981,4.981v20.772c0,0.025,0.003,0.049,0.004,0.074  c0.002,0.139,0.007,0.277,0.021,0.415c0.008,0.083,0.023,0.164,0.036,0.246c0.012,0.078,0.021,0.158,0.036,0.236  c0.018,0.089,0.042,0.176,0.064,0.264c0.018,0.069,0.033,0.14,0.054,0.209c0.026,0.085,0.058,0.168,0.088,0.251  c0.025,0.069,0.048,0.141,0.076,0.209c0.033,0.078,0.07,0.153,0.107,0.229c0.034,0.071,0.065,0.143,0.103,0.213  c0.039,0.073,0.084,0.144,0.127,0.215c0.041,0.067,0.079,0.137,0.123,0.203c0.054,0.08,0.113,0.155,0.171,0.232  c0.04,0.053,0.076,0.107,0.119,0.159c0.209,0.255,0.442,0.488,0.697,0.697c0.054,0.044,0.111,0.082,0.166,0.124  c0.075,0.056,0.147,0.113,0.225,0.165c0.069,0.047,0.142,0.087,0.213,0.13c0.068,0.041,0.134,0.083,0.204,0.121  c0.074,0.039,0.15,0.073,0.226,0.108c0.072,0.034,0.142,0.069,0.216,0.1c0.074,0.031,0.149,0.056,0.224,0.082  c0.079,0.028,0.156,0.059,0.236,0.083c0.075,0.022,0.151,0.039,0.227,0.059c0.082,0.021,0.163,0.043,0.246,0.06  c0.087,0.018,0.175,0.027,0.263,0.04c0.073,0.011,0.145,0.024,0.219,0.031c0.163,0.017,0.326,0.025,0.489,0.025  c0.001,0,0.001,0,0.002,0h20.773c2.751,0,4.981-2.23,4.981-4.981S40.755,78.515,38.004,78.515z"/><text x="0" y="115" fill="#000000" font-size="5px" font-weight="bold" font-family="'Helvetica Neue', Helvetica, Arial-Unicode, Arial, Sans-serif"></text><text x="0" y="120" fill="#000000" font-size="5px" font-weight="bold" font-family="'Helvetica Neue', Helvetica, Arial-Unicode, Arial, Sans-serif"></text></svg>