<?xml version="1.0" encoding="utf-8"?>
<!-- Generator: Adobe Illustrator 22.0.1, SVG Export Plug-In . SVG Version: 6.00 Build 0)  -->
<svg version="1.1" id="Layer_1" xmlns="http://www.w3.org/2000/svg" xmlns:xlink="http://www.w3.org/1999/xlink" x="0px" y="0px"
	 viewBox="0 0 254.1 257.1" style="enable-background:new 0 0 254.1 257.1;" xml:space="preserve">
<g>
	<path d="M213.3,156.7c1.8-0.7,3.2-1.3,5-2c11.9,21,23.9,41.9,35.9,63c-1.3,4.7-2.7,9.3-4.1,14.3c-4.6,2.6-9.3,5.4-14.2,8.2
		c-4.8-1.3-9.6-2.6-14.3-3.9c-9.6-16.2-18.3-32.5-27.9-48.4c-0.3,0.1-0.7,0.2-1,0.3c0,22.9,0,45.8,0,68.9c-54,0-107.6,0-161.5,0
		c-9.8-10.1-19.8-20.3-30.6-31.2c0-5.6,0-12.3,0-19.4c2.4,0,4.6,0,7.4,0c0,4.9,0,9.7,0,14.9c9.6,0,18.7,0,28.3,0
		c0,9.5,0,18.6,0,27.5c4.1,1.1,141.4,1.4,148.6,0.4c0.1-1.2,0.3-2.5,0.3-3.8c0-26.7,0-53.3,0-80c0-2.4-0.4-4.6-1.7-6.6
		c-1.5-2.4-2.9-4.8-4.3-7.3c-32.5,6.8-59-1.9-75.5-31.4c-13-23.2-10.9-47.1,5.3-68.1c19.5-25.3,45.8-30.8,75.9-20.8
		c0-7.9,0-15.4,0-23.6c-6.2,0-12.1,0-18.3,0c0-2.7,0-4.7,0-7.1c8.5,0,16.9,0,25.9,0c0.3,11.7,0,23.2,0.2,34.8
		c18,11.8,28.9,27.7,30.7,49.2c1.9,21.1-5.5,38.8-20.9,53.4C206.1,144.3,209.7,150.4,213.3,156.7z M159.8,34.2
		c-31.1-0.1-56.4,24.9-56.5,56c-0.1,30.8,25.3,56,56.5,56.2c31,0.1,56.3-25,56.4-56.1C216.4,59.3,191.3,34.4,159.8,34.2z M245.7,219
		c-5.4-11.5-28.5-51.2-31.3-53.8c-6.1,3.5-12.3,7-18.8,10.7c10.5,18.4,20.6,36.2,30.7,54c3.1,0.8,5.8,1.5,8.5,2.2
		c3.1-1.8,5.9-3.5,8.7-5.1C244.3,224.1,245,221.6,245.7,219z M206.8,160.8c-3.5-6.2-6.8-12-10.3-18.2c-3.7,2.2-6.8,4.1-10.1,6.1
		c3.6,6.2,6.9,11.9,10.3,17.9C200.1,164.6,203.2,162.8,206.8,160.8z M15.2,229.3c4.4,4.5,8.9,9,13.4,13.5c0-4.3,0-8.8,0-13.5
		C23.8,229.3,19.3,229.3,15.2,229.3z"/>
	<path d="M8.1,7.6c0,63.6,0,126.5,0,190c-2.6,0.1-4.8,0.2-6.9,0.3C0,193.7-0.4,15.5,0.5,1c3.5-1,146.3-1.5,157-0.5c0,2.2,0,4.4,0,7
		c-25.1,0-49.9,0-74.7,0C58,7.6,33.2,7.6,8.1,7.6z"/>
	<path d="M89.1,115.3c-23.2,0-46.2,0-69.4,0c0-5.6,0-11,0-16.8c2.3,0,4.5,0,7,0c0.2,3,0.3,6,0.5,9.3c2.5,0,4.9,0,7.8,0
		c0-5.9,0-11.9,0-18.1c2.5,0,4.6,0,7.3,0c0.1,5.9,0.2,11.9,0.3,18.2c2.8,0,5.2,0,8.2,0c0-12.8,0-25.4,0-38.3c2.6,0,4.7,0,7.2,0
		c0,12.6,0,25.2,0,37.6c2.8,1.8,5.2,0.7,7.8,1c1-5.5,0.4-10.6,0.5-15.7c0.1-5.3,0-10.7,0-16c0-5.2,0-10.3,0-15.5
		c0-5.1,0-10.2,0-15.6c2.7,0,4.8,0,7.4,0c0,20.8,0,41.4,0,62.4c2.9,0,5.2,0,8.2,0c0-24,0-47.9,0-72.1c2.6,0,4.7,0,7.1,0
		C89.1,62,89.1,88.4,89.1,115.3z"/>
	<path d="M79.4,211.3c0-20.6,0-41.2,0-62.1c7.4,0,14.6,0,22.2,0c0,20.7,0,41.3,0,61.9C98.2,212.2,84.5,212.3,79.4,211.3z
		 M93.7,204.2c1.1-6.9,0.8-44.1-0.3-47.4c-2.1,0-4.2,0-6.2,0c-1.1,6.4-0.8,43.9,0.4,47.4C89.5,204.2,91.5,204.2,93.7,204.2z"/>
	<path d="M49.7,159.5c7.4,0,14.6,0,21.7,0c1,3.5,1.3,44.8,0.4,52.1c-7.2,0-14.5,0-21.7,0C49.1,207.9,48.8,167.9,49.7,159.5z M57,167
		c0.2,12.7-0.3,24.8,0.3,37.1c2.6,0,4.7,0,6.7,0c0.9-6.6,0.7-33.4-0.4-37.1C61.7,167,59.8,167,57,167z"/>
	<path d="M42.2,177.1c0,12.2,0,23.9,0,35.7c-3.8,0.9-17.1,1.1-22.5,0.2c0-11.8,0-23.7,0-35.9C27.2,177.1,34.4,177.1,42.2,177.1z
		 M27.2,184.6c0,4-0.1,7.3,0,10.6c0.1,3.4-0.7,6.9,0.5,10.1c2.3,0,4.4,0,6.6,0c0-6.9,0-13.5,0-20.2c-0.8-0.2-1.4-0.4-2.1-0.4
		C30.8,184.6,29.3,184.6,27.2,184.6z"/>
	<path d="M68,23.4c-14.9,0-29.4,0-44.4,0c0,4.4,0,8.5,0,13c-2.7,0-4.9,0-7.3,0c0-6.7,0-13.3,0-20.6c17.2-0.2,34.2,0,51.7-0.1
		C68,18.3,68,20.5,68,23.4z"/>
	<path d="M171.5,187.7c0,3,0,5.6,0,8.3c-18.6,0-36.9,0-55.5,0c0-2.8,0-5.4,0-8.3C134.5,187.7,152.9,187.7,171.5,187.7z"/>
	<path d="M147.5,243c0-2.6,0-4.8,0-7.4c7.1,0,14.1,0,21.5,0c0.2-2.7,0.3-5.1,0.5-7.8c2.4,0,4.7,0,7.4,0c0.5,4.9,0.1,9.8,0.2,14.7
		C173.6,243.6,156.6,243.9,147.5,243z"/>
	<path d="M171.6,205.3c0,2.7,0,5.1,0,7.9c-8.7,0-17.2,0-26,0c0-2.6,0-5,0-7.5C149,204.6,164.4,204.3,171.6,205.3z"/>
	<path d="M116,178.2c0-2.8,0-5.3,0-8c7.4,0,14.6,0,22.1,0c0,2.6,0,5.2,0,8C130.8,178.2,123.6,178.2,116,178.2z"/>
	<path d="M169.9,170.1c0,3,0,5.4,0,8.1c-7.5,0-14.7,0-22.3,0c0-2.6,0-5.2,0-8.1C154.9,170.1,162.3,170.1,169.9,170.1z"/>
	<path d="M143.6,243.1c-3.6,0-6.7,0-10,0c0-2.8,0-5.4,0-8.3c3.3,0,6.5,0,10,0C143.6,237.6,143.6,240.2,143.6,243.1z"/>
	<path d="M14.4,50.6c0-2.8,0-5.2,0-8c2.8,0,5.5,0,8.4,0c0,2.6,0,5.2,0,8C20,50.6,17.3,50.6,14.4,50.6z"/>
	<path d="M124.2,213.3c-2.8,0-5.2,0-8.1,0c0-2.6,0-5.1,0-8.1c2.6,0,5.2,0,8.1,0C124.2,207.8,124.2,210.3,124.2,213.3z"/>
	<path d="M130,205.1c2.8,0,5.4,0,8.2,0c0,2.8,0,5.4,0,8.2c-2.8,0-5.4,0-8.2,0C130,210.5,130,207.9,130,205.1z"/>
	<path d="M208.4,89c0.1,27.4-21.6,49.5-49.1,49.3c-28.3-0.2-48.5-22.5-48.8-48.6c-0.4-26.9,21.9-49.2,48.7-49.3
		C186.4,40.3,208.3,62,208.4,89z M159.4,48.1c-22.9,0-41.2,18.4-41.2,41.3c0,22.9,18.3,41.1,41.3,41.2c23.1,0.1,41.8-18.6,41.5-41.6
		C200.8,66.1,182.4,48.1,159.4,48.1z"/>
	<path d="M208.9,186.3c2.4-1.3,4.3-2.3,6.6-3.5c3.9,6.8,7.7,13.4,11.8,20.5c-2,1.2-3.9,2.3-6.3,3.7
		C216.6,200.3,213.2,193.4,208.9,186.3z"/>
	<path d="M224.3,213.5c2.5-1.3,4.3-2.3,6.6-3.5c1.3,2.1,2.4,4,3.7,6.3c-2.2,1.2-4,2.3-6.3,3.6C227,217.8,225.8,215.9,224.3,213.5z"
		/>
	<path d="M170.5,65.6c0.9-1.7,1.9-3.6,3-5.7c7.3,3.3,11.9,8.5,15.6,15.3c-1.1,0.7-2.1,1.3-3,1.8c-1,0.5-2.1,0.9-3,1.3
		C178.9,74.1,174.8,69.9,170.5,65.6z"/>
	<path d="M194,96.4c-3.1-0.6-5.1-1-7.5-1.4c0-3,0-6,0-9.3c2.1-0.4,4.3-0.9,6.7-1.4C195.1,88.3,194.3,92.1,194,96.4z"/>
</g>
</svg>
