<?xml version="1.0" encoding="utf-8"?><svg version="1.1" id="Layer_1" xmlns="http://www.w3.org/2000/svg" xmlns:xlink="http://www.w3.org/1999/xlink" x="0px" y="0px" viewBox="0 0 122.88 84" style="enable-background:new 0 0 122.88 84" xml:space="preserve"><style type="text/css">.st0{fill-rule:evenodd;clip-rule:evenodd;}</style><g><path class="st0" d="M0,84c1.01-13.1-1.56-12.53,9.41-16.64c5.48-2.05,12.47-4.65,17.5-7.79L36.32,84L0,84L0,84z M47.06,71.01h1.31 c1.18,0,2.15-0.97,2.15-2.15v-3.49c0-1.18-0.97-2.15-2.15-2.15h-7.79c-1.18,0-2.15,0.97-2.15,2.15v3.49c0,1.18,0.97,2.15,2.15,2.15 h1.33L39.36,84h10.16L47.06,71.01L47.06,71.01z M104.48,5.69L86.87,3.36c-1.15-0.15-2.24-0.09-3.24,0.18 c-1,0.27-1.96,0.75-2.87,1.44c-0.9,0.69-1.61,1.49-2.14,2.39c-0.52,0.9-0.86,1.93-1.02,3.08l-2.28,17.19 c-0.15,1.15-0.09,2.24,0.18,3.24c0.27,1,0.75,1.96,1.44,2.87c0.71,0.9,1.51,1.64,2.41,2.14c0.9,0.52,1.91,0.86,3.06,1.01l7.56,1 c0.88,0.12,1.52,0.94,1.4,1.83c-0.03,0.2-0.09,0.37-0.16,0.54c-0.43,1.02-0.88,2.04-1.37,3.01c-0.52,1.03-1.05,2-1.63,2.93 c-0.29,0.48-0.62,0.93-0.97,1.4c1.64-0.48,3.2-1.08,4.67-1.79c1.54-0.74,3-1.6,4.36-2.57c1.39-0.98,2.66-2.1,3.85-3.31 c0.37-0.38,0.88-0.53,1.37-0.47l6.5,0.86c1.15,0.15,2.21,0.09,3.22-0.18c1-0.27,1.96-0.75,2.89-1.44c0.9-0.69,1.61-1.49,2.14-2.39 c0.52-0.9,0.86-1.93,1.02-3.08l2.28-17.19c0.15-1.15,0.09-2.24-0.18-3.24c-0.27-1-0.75-1.97-1.44-2.87 c-0.69-0.9-1.49-1.61-2.39-2.14c-0.9-0.52-1.93-0.86-3.08-1.02l-7.98-1.06L104.48,5.69L104.48,5.69L104.48,5.69z M89.06,22.96 c-0.34-0.42-0.47-0.94-0.42-1.44c0.06-0.5,0.3-0.98,0.72-1.31c0.42-0.34,0.94-0.47,1.44-0.42c0.5,0.06,0.98,0.3,1.31,0.72 l2.91,3.66l7.77-7.57c0-0.01,0.06-0.05,0.07-0.06c0.89-0.59,2.09-0.35,2.7,0.53c0.6,0.88,0.39,2.09-0.49,2.71l-9.27,8.66 c0,0-0.05,0.04-0.06,0.04c-0.42,0.28-0.91,0.38-1.38,0.31c-0.47-0.07-0.92-0.31-1.24-0.71L89.06,22.96L89.06,22.96L89.06,22.96z M95.28,1.19l17.61,2.33c1.55,0.21,2.97,0.69,4.26,1.42c1.27,0.73,2.4,1.73,3.36,2.99c0.96,1.25,1.63,2.6,2.01,4.02 c0.37,1.42,0.47,2.92,0.26,4.49l-2.28,17.19c-0.21,1.57-0.69,2.99-1.42,4.26c-0.73,1.27-1.73,2.4-2.99,3.36 c-1.25,0.96-2.6,1.61-4.02,2.01c-1.42,0.37-2.92,0.47-4.49,0.26l-5.7-0.76c-1.16,1.13-2.4,2.18-3.69,3.11 c-1.54,1.1-3.15,2.06-4.85,2.86c-1.71,0.83-3.51,1.51-5.4,2.05c-1.87,0.54-3.85,0.93-5.91,1.19c-0.59,0.08-1.19-0.18-1.55-0.7 c-0.51-0.74-0.31-1.75,0.43-2.26c1.04-0.69,1.94-1.43,2.69-2.18c0.73-0.74,1.35-1.51,1.84-2.32l0-0.02 c0.54-0.87,1.04-1.77,1.5-2.68c0.15-0.32,0.31-0.66,0.47-0.99l-5.44-0.72c-1.55-0.2-2.97-0.69-4.26-1.42 c-1.27-0.73-2.4-1.73-3.36-2.99c-0.96-1.25-1.63-2.6-2.01-4.02c-0.37-1.44-0.46-2.94-0.26-4.48L74.37,10 c0.21-1.55,0.69-2.97,1.42-4.26c0.73-1.27,1.73-2.4,2.99-3.36c1.25-0.96,2.6-1.63,4.02-2.01c1.42-0.37,2.92-0.47,4.48-0.26 l7.97,1.06L95.28,1.19L95.28,1.19L95.28,1.19z M33.43,52.06c0.24-2.01-5.72-9.69-6.81-13.37c-2.33-3.71-3.16-9.61-0.62-13.53 c1.01-1.56,0.58-4.33,0.58-6.48c0-21.35,37.41-21.36,37.41,0c0,2.7-0.62,4.75,0.84,6.88c2.45,3.55,1.19,9.84-0.88,13.14 c-1.32,3.87-7.58,11.18-7.15,13.37C57.19,63.02,33.36,62.66,33.43,52.06L33.43,52.06z M62.46,58.45c4.6,2.94,11.12,5.36,16.33,7.1 C89.03,68.96,89,69.43,88.93,84l-36.18,0L62.46,58.45L62.46,58.45z"/></g></svg>