<svg xmlns="http://www.w3.org/2000/svg" xmlns:xlink="http://www.w3.org/1999/xlink" version="1.1" x="0px" y="0px" viewBox="0 0 512 640" enable-background="new 0 0 512 512" xml:space="preserve"><g><path d="M158.1,239.8c42,0,76.1-34.1,76.1-76.1c0-42-34.1-76.1-76.1-76.1c-42,0-76.1,34.1-76.1,76.1   C82,205.6,116.1,239.8,158.1,239.8z M158.1,125.6c21,0,38.1,17.1,38.1,38.1c0,21-17.1,38.1-38.1,38.1c-21,0-38.1-17.1-38.1-38.1   C120,142.7,137.1,125.6,158.1,125.6z"/><path d="M348.4,277.8c-42,0-76.1,34.1-76.1,76.1c0,42,34.1,76.1,76.1,76.1c42,0,76.1-34.1,76.1-76.1   C424.5,312,390.3,277.8,348.4,277.8z M348.4,392c-21,0-38.1-17.1-38.1-38.1c0-21,17.1-38.1,38.1-38.1c21,0,38.1,17.1,38.1,38.1   C386.4,374.9,369.3,392,348.4,392z"/><polygon points="310.3,68.5 310.3,106.6 378.5,106.6 68.5,416.6 95.4,443.5 405.4,133.5 405.4,201.7 443.5,201.7 443.5,68.5  "/></g><text x="0" y="527" fill="#000000" font-size="5px" font-weight="bold" font-family="'Helvetica Neue', Helvetica, Arial-Unicode, Arial, Sans-serif">Created by Creative Stall</text><text x="0" y="532" fill="#000000" font-size="5px" font-weight="bold" font-family="'Helvetica Neue', Helvetica, Arial-Unicode, Arial, Sans-serif">from the Noun Project</text></svg>